<?xml version="1.0" encoding="UTF-8" standalone="no"?>
<svg
   xmlns:dc="http://purl.org/dc/elements/1.1/"
   xmlns:cc="http://creativecommons.org/ns#"
   xmlns:rdf="http://www.w3.org/1999/02/22-rdf-syntax-ns#"
   xmlns:svg="http://www.w3.org/2000/svg"
   xmlns="http://www.w3.org/2000/svg"
   xmlns:sodipodi="http://sodipodi.sourceforge.net/DTD/sodipodi-0.dtd"
   xmlns:inkscape="http://www.inkscape.org/namespaces/inkscape"
   version="1.0"
   width="48"
   height="48"
   viewBox="0 0 38.4 38.4"
   preserveAspectRatio="xMidYMid meet"
   id="svg2"
   inkscape:version="0.48.5 r10040"
   sodipodi:docname="utilities-twitch-symbolic.svg">
  <defs
     id="defs16" />
  <sodipodi:namedview
     pagecolor="#ffffff"
     bordercolor="#666666"
     borderopacity="1"
     objecttolerance="10"
     gridtolerance="10"
     guidetolerance="10"
     inkscape:pageopacity="0"
     inkscape:pageshadow="2"
     inkscape:window-width="1920"
     inkscape:window-height="1014"
     id="namedview14"
     showgrid="false"
     inkscape:zoom="13.350176"
     inkscape:cx="13.125495"
     inkscape:cy="24.270605"
     inkscape:window-x="0"
     inkscape:window-y="27"
     inkscape:window-maximized="1"
     inkscape:current-layer="svg2" />
  <metadata
     id="metadata4">
Created by potrace 1.11, written by Peter Selinger 2001-2013
<rdf:RDF>
  <cc:Work
     rdf:about="">
    <dc:format>image/svg+xml</dc:format>
    <dc:type
       rdf:resource="http://purl.org/dc/dcmitype/StillImage" />
  </cc:Work>
</rdf:RDF>
</metadata>
  <g
     transform="matrix(0.0014518,0,0,-0.0014518,1.6001096,38.116856)"
     id="g6"
     style="fill:#cccccc;stroke:none">
    <path
       d="m 1665,25588 c -3,-7 -379,-1009 -835,-2227 L 0,21146 0,12243 0,3340 l 3060,0 3060,0 0,-1670 0,-1670 1668,0 1667,0 1670,1670 1670,1670 2505,0 2505,0 3338,3338 3337,3337 0,7793 0,7792 -11405,0 c -9115,0 -11407,-3 -11410,-12 z m 20585,-8338 0,-6125 -1942,-1942 -1943,-1943 -3060,0 -3060,0 -1665,-1665 C 9664,4659 8912,3910 8908,3910 c -5,0 -8,749 -8,1665 l 0,1665 -2505,0 -2505,0 0,8063 c 0,4435 3,8067 7,8070 3,4 4134,6 9180,5 l 9173,-3 0,-6125 z"
       id="path8"
       style="fill:#cccccc"
       inkscape:connector-curvature="0" />
    <path
       d="m 10012,15583 3,-3338 1113,-3 1112,-2 0,3340 0,3340 -1115,0 -1115,0 2,-3337 z"
       id="path10"
       style="fill:#cccccc"
       inkscape:connector-curvature="0" />
    <path
       d="m 16132,15583 3,-3338 1113,-3 1112,-2 0,3340 0,3340 -1115,0 -1115,0 2,-3337 z"
       id="path12"
       style="fill:#cccccc"
       inkscape:connector-curvature="0" />
  </g>
</svg>
